<?xml version="1.0" standalone="no"?>
<!DOCTYPE svg PUBLIC "-//W3C//DTD SVG 20010904//EN"
 "http://www.w3.org/TR/2001/REC-SVG-20010904/DTD/svg10.dtd">
<svg version="1.0" xmlns="http://www.w3.org/2000/svg"
 width="516.000000pt" height="603.000000pt" viewBox="0 0 516.000000 603.000000"
 preserveAspectRatio="xMidYMid meet">

<g transform="translate(0.000000,603.000000) scale(0.100000,-0.100000)"
fill="#000000" stroke="none">
<path d="M2265 5893 c-190 -15 -400 -60 -560 -120 -405 -151 -749 -481 -972
-933 -102 -208 -148 -371 -159 -571 l-7 -117 -54 -22 c-68 -28 -135 -91 -162
-150 -38 -84 -25 -241 29 -356 58 -122 185 -215 313 -232 l58 -7 30 -90 c62
-185 164 -361 269 -463 l61 -60 -31 -67 c-51 -108 -87 -214 -115 -341 -34
-147 -39 -360 -12 -483 38 -169 117 -313 244 -442 l64 -66 -113 -64 c-62 -35
-118 -65 -124 -67 -23 -6 -84 85 -148 220 -77 163 -98 188 -158 188 -55 0
-104 -25 -142 -73 -25 -31 -31 -49 -34 -102 -4 -64 -4 -64 -32 -59 -21 5 -35
-1 -60 -23 -26 -24 -33 -39 -37 -79 -4 -35 0 -60 11 -82 l17 -32 -46 0 c-35 0
-52 -6 -70 -25 -31 -30 -33 -82 -4 -119 l20 -26 -21 0 c-29 0 -77 -26 -90 -49
-32 -61 7 -111 161 -202 67 -39 129 -84 143 -102 13 -18 47 -77 76 -132 86
-165 139 -236 205 -276 37 -23 122 -25 190 -5 28 9 66 13 94 9 29 -3 72 1 111
11 86 23 325 71 425 87 80 13 105 23 105 41 0 7 -21 8 -57 3 -57 -6 -342 -61
-374 -71 -15 -4 -15 1 -2 58 40 167 -34 422 -204 706 -46 78 -53 96 -42 106
22 20 140 90 186 110 l41 18 44 -31 c120 -87 302 -191 333 -191 14 0 28 -27
21 -39 -8 -13 15 -383 29 -466 l13 -80 1 55 c0 30 -4 96 -10 145 -14 127 -21
294 -14 333 6 33 7 34 48 28 23 -3 70 -9 104 -12 58 -6 62 -5 78 20 21 31 14
86 -17 129 -24 34 -18 45 17 29 14 -7 43 -12 65 -12 30 0 43 6 59 26 21 26 28
78 13 100 -9 15 -101 64 -119 64 -26 0 -3 19 36 30 95 25 120 92 52 137 -19
13 -47 23 -63 23 -16 0 -28 4 -26 8 2 4 19 38 38 76 37 73 36 83 -13 120 -40
29 -153 25 -202 -8 -29 -20 -41 -23 -64 -15 -75 26 -151 131 -151 210 0 20 9
67 21 104 11 37 18 69 15 72 -27 27 -66 -78 -66 -176 1 -84 34 -149 104 -202
79 -60 123 -60 185 -3 18 17 38 24 66 24 94 0 110 -58 45 -159 -22 -34 -40
-66 -40 -71 0 -6 24 -10 54 -10 56 0 106 -26 106 -56 0 -17 -62 -58 -112 -74
-50 -15 -48 -35 5 -49 94 -24 144 -78 114 -124 -24 -37 -69 -40 -154 -13 -19
6 -23 4 -23 -12 0 -10 9 -27 20 -37 28 -25 44 -79 31 -104 -23 -42 -81 -39
-226 14 -282 103 -533 314 -651 547 -65 129 -79 201 -79 403 0 192 8 244 62
410 31 97 93 235 104 235 5 0 39 -21 76 -46 129 -87 361 -184 543 -228 182
-44 306 -58 535 -63 177 -4 261 -2 365 11 323 40 605 130 824 265 l69 43 28
-29 c128 -129 276 -394 329 -590 33 -121 38 -322 12 -434 -66 -273 -318 -591
-574 -723 -133 -68 -189 -35 -142 84 9 23 14 44 10 47 -3 4 -23 -2 -44 -11
-66 -32 -94 -37 -119 -21 -35 24 -31 73 10 112 17 16 47 39 65 49 18 10 31 23
29 29 -2 5 -28 13 -57 18 -30 4 -66 14 -82 21 -33 17 -37 4 -6 -18 13 -9 43
-16 70 -16 27 0 48 -4 48 -10 0 -5 -7 -10 -15 -10 -25 0 -61 -28 -90 -70 -22
-32 -26 -46 -21 -75 12 -61 76 -73 152 -29 53 31 57 20 19 -48 l-25 -45 3
-274 3 -274 99 -12 c138 -17 355 -58 509 -94 95 -23 140 -30 175 -25 32 4 62
1 91 -9 60 -21 142 -19 189 4 64 33 111 97 214 291 30 58 68 117 84 132 15 15
71 52 123 83 128 76 170 118 170 167 0 44 -27 75 -75 84 l-32 6 20 39 c16 32
17 44 8 70 -15 43 -38 58 -90 59 -37 0 -42 2 -36 18 31 76 26 130 -18 174 -24
24 -36 29 -59 24 -27 -5 -28 -4 -28 33 0 112 -79 201 -178 201 -62 0 -85 -27
-167 -193 -41 -84 -89 -167 -106 -186 l-31 -33 -101 47 c-56 26 -104 49 -106
51 -2 1 6 16 18 32 38 53 100 195 122 277 42 157 27 377 -38 560 -45 127 -178
366 -236 427 -7 7 -30 35 -52 62 l-39 48 49 41 c87 70 207 199 258 277 92 141
171 329 206 494 l17 80 73 22 c133 41 223 122 271 244 43 110 44 285 1 368
-41 79 -147 147 -248 159 l-50 5 -12 130 c-45 480 -283 850 -671 1044 -41 20
-94 50 -118 66 -221 151 -722 252 -1097 221z m450 -53 c125 -18 238 -42 313
-66 40 -13 79 -24 88 -24 9 0 12 -5 8 -12 -4 -7 -3 -8 4 -4 13 8 172 -65 219
-100 18 -14 61 -37 95 -53 55 -24 175 -100 231 -144 9 -8 15 -21 11 -30 -3 -8
0 -18 7 -23 7 -4 10 -3 5 4 -3 6 -2 13 3 16 22 14 232 -235 235 -278 0 -14 4
-24 9 -23 9 2 55 -81 62 -113 0 -3 6 -14 11 -25 13 -23 57 -167 74 -243 13
-56 20 -115 27 -224 5 -66 4 -66 -24 -72 -67 -13 -151 -7 -178 14 -5 4 -24 11
-42 14 -17 4 -75 36 -129 72 -53 35 -100 64 -105 64 -5 0 -9 4 -9 9 0 4 -18
21 -40 36 -22 15 -40 34 -40 41 0 8 -7 14 -16 14 -8 0 -29 14 -46 30 -16 17
-34 30 -39 30 -5 0 -9 5 -9 11 0 6 -13 24 -29 40 -16 16 -34 29 -40 29 -6 0
-11 5 -11 11 0 14 -55 69 -69 69 -6 0 -11 7 -11 16 0 12 -7 14 -32 9 -18 -4
-37 -11 -43 -15 -5 -4 -32 -15 -60 -25 -27 -10 -57 -24 -65 -30 -8 -7 -42 -22
-75 -34 -33 -12 -75 -31 -93 -42 -18 -10 -37 -19 -43 -19 -5 0 -28 -9 -52 -19
-97 -44 -136 -54 -184 -47 -26 3 -50 10 -54 14 -7 6 0 60 16 138 5 23 3 33 -8
37 -14 5 -118 -16 -212 -43 -22 -6 -58 -16 -80 -21 -21 -6 -44 -14 -50 -18 -5
-5 -27 -11 -47 -15 -21 -4 -38 -11 -38 -16 0 -6 -13 -10 -29 -10 -16 0 -36 -7
-45 -15 -8 -8 -24 -15 -35 -15 -11 0 -22 -4 -25 -9 -3 -4 -27 -16 -53 -26 -26
-10 -50 -21 -53 -24 -5 -6 -148 -76 -213 -105 -41 -17 -122 -22 -132 -7 -3 5
1 29 10 53 8 24 15 56 15 72 l0 29 -52 -7 c-28 -4 -59 -11 -69 -17 -10 -5 -28
-9 -41 -9 -13 0 -28 -4 -33 -9 -6 -5 -45 -24 -87 -41 -43 -18 -78 -37 -78 -41
0 -5 -7 -9 -17 -9 -15 0 -61 -30 -95 -62 -7 -7 -24 -19 -38 -26 -14 -7 -58
-44 -98 -82 -40 -39 -77 -70 -82 -70 -5 0 -15 -8 -22 -18 -18 -23 -75 -42
-129 -42 -36 0 -51 7 -83 36 -38 34 -40 38 -40 97 -1 83 33 187 128 389 14 31
31 69 36 83 7 17 15 25 25 22 9 -4 12 -1 9 8 -6 14 41 94 63 108 7 4 13 15 13
23 0 37 203 283 317 384 71 63 199 154 231 164 12 4 22 12 22 18 0 6 8 8 18 6
11 -3 30 1 43 8 13 7 20 13 16 14 -5 0 -17 -5 -28 -10 -10 -6 -19 -8 -19 -5 0
16 285 135 320 134 3 0 22 7 44 16 21 9 41 14 44 11 3 -3 10 -2 16 3 6 5 27
11 46 14 19 3 62 11 95 17 33 7 94 16 135 20 93 11 411 4 505 -10z m500 -1116
c9 -14 51 -62 93 -106 137 -144 398 -324 680 -468 l122 -64 0 -135 c-1 -281
-53 -509 -167 -736 -69 -135 -116 -200 -227 -310 -291 -290 -725 -451 -1266
-472 -556 -20 -1090 141 -1366 412 -172 169 -308 476 -354 802 -15 104 -11
128 49 249 82 167 201 316 345 432 83 68 166 126 171 120 3 -2 0 -22 -6 -44
-22 -77 8 -254 43 -254 5 0 32 17 61 38 98 72 238 153 435 251 193 97 465 221
482 221 5 0 -11 -42 -35 -92 -25 -51 -48 -108 -51 -125 -8 -43 -2 -43 151 1
250 71 543 179 710 260 50 25 95 45 101 45 7 1 19 -11 29 -25z m1039 -339
c157 -48 213 -136 204 -319 -5 -84 -11 -112 -36 -168 -49 -109 -151 -192 -262
-214 l-33 -7 8 54 c4 30 9 135 11 234 1 99 6 237 10 308 8 144 4 140 98 112z
m-3674 -309 c0 -44 44 -195 74 -254 16 -31 30 -88 41 -165 9 -65 23 -143 30
-175 8 -31 12 -59 9 -61 -8 -9 -106 19 -160 46 -69 33 -127 96 -165 177 -73
156 -61 326 29 404 31 27 124 72 135 65 4 -2 7 -19 7 -37z m194 -2488 c13 -18
51 -89 84 -158 32 -69 80 -150 105 -182 130 -158 269 -443 306 -626 19 -92 18
-95 -70 -179 -103 -99 -117 -107 -90 -54 45 87 53 286 11 286 -12 0 -14 -15
-12 -90 3 -74 0 -101 -19 -150 -44 -121 -161 -185 -252 -139 -60 31 -124 118
-205 280 -63 126 -83 147 -211 223 -121 72 -177 122 -167 148 4 8 6 19 6 23 0
16 67 28 111 20 51 -10 77 5 44 24 -37 21 -85 74 -85 93 0 30 29 63 56 63 14
0 41 -7 61 -15 58 -24 68 -13 34 40 -38 59 -46 104 -27 149 12 30 20 36 44 36
16 0 37 -9 47 -20 25 -28 49 -27 41 3 -4 12 -10 47 -13 78 -5 47 -2 63 17 97
26 46 81 81 127 82 25 0 38 -8 57 -32z m3599 18 c69 -29 106 -110 87 -191 -5
-22 -10 -48 -10 -57 0 -22 23 -23 40 -2 29 33 49 36 75 10 40 -40 29 -122 -27
-198 -20 -27 -2 -32 51 -12 70 25 105 13 109 -37 3 -32 -2 -41 -42 -76 -50
-44 -60 -69 -24 -58 44 15 121 8 135 -11 35 -48 0 -87 -175 -188 -95 -55 -126
-90 -184 -201 -143 -280 -219 -343 -343 -286 -51 24 -88 63 -117 126 -19 42
-23 66 -22 152 1 76 -2 103 -11 103 -30 0 -34 -169 -6 -245 10 -27 22 -59 26
-70 4 -11 -30 16 -76 61 -46 45 -90 83 -97 85 -19 6 3 132 45 253 58 167 178
385 272 493 36 41 57 79 125 226 64 141 88 158 169 123z m-475 -351 c51 -24
92 -46 92 -49 0 -2 -16 -28 -35 -58 -62 -92 -154 -283 -192 -395 -29 -87 -37
-127 -41 -210 -3 -62 0 -121 7 -149 7 -25 11 -48 9 -49 -2 -1 -64 10 -138 26
-74 15 -189 35 -255 44 -66 9 -130 19 -142 21 l-23 4 0 226 c0 219 0 224 19
214 48 -25 119 -3 237 77 103 69 231 187 299 276 28 36 55 66 61 66 6 1 52
-19 102 -44z m-2625 -827 c-3 -18 -14 -49 -24 -69 -19 -37 -45 -49 -110 -49
-26 0 -23 5 51 75 43 41 81 75 84 75 3 0 3 -15 -1 -32z m2572 -43 l79 -75 -36
0 c-67 0 -95 17 -112 68 -15 42 -21 82 -13 82 2 0 39 -34 82 -75z"/>
<path d="M2628 5823 c6 -2 18 -2 25 0 6 3 1 5 -13 5 -14 0 -19 -2 -12 -5z"/>
<path d="M2078 5813 c6 -2 18 -2 25 0 6 3 1 5 -13 5 -14 0 -19 -2 -12 -5z"/>
<path d="M2168 5803 c7 -3 16 -2 19 1 4 3 -2 6 -13 5 -11 0 -14 -3 -6 -6z"/>
<path d="M3078 5723 c7 -3 16 -2 19 1 4 3 -2 6 -13 5 -11 0 -14 -3 -6 -6z"/>
<path d="M1300 5480 c-9 -6 -10 -10 -3 -10 6 0 15 5 18 10 8 12 4 12 -15 0z"/>
<path d="M1605 3666 c-142 -63 -86 -273 68 -253 127 17 151 195 33 251 -41 19
-61 20 -101 2z m43 -38 c21 -21 14 -57 -14 -70 -23 -11 -29 -10 -45 11 -23 28
-23 35 -3 55 18 19 45 21 62 4z"/>
<path d="M3115 3664 c-46 -24 -64 -44 -75 -83 -14 -53 3 -104 48 -141 118 -97
275 64 180 185 -22 28 -74 55 -105 55 -10 0 -31 -7 -48 -16z m45 -38 c28 -35
-11 -93 -47 -70 -36 22 -23 84 17 84 10 0 23 -7 30 -14z"/>
<path d="M2218 2957 c-76 -22 -98 -41 -98 -87 0 -56 35 -141 72 -178 83 -79
229 -101 340 -50 147 68 237 222 161 276 -48 34 -103 44 -268 48 -113 3 -174
0 -207 -9z m275 -27 c113 -11 181 -31 191 -57 10 -26 -43 -116 -89 -151 -69
-53 -138 -75 -215 -70 -131 10 -220 92 -220 202 0 55 37 70 210 85 8 0 64 -4
123 -9z"/>
<path d="M3280 2030 c0 -5 13 -30 29 -54 76 -121 60 -247 -41 -329 l-37 -30
-50 22 c-57 24 -105 26 -141 6 -14 -8 -38 -14 -53 -15 -25 0 -27 -2 -16 -21 6
-12 8 -30 5 -42 -8 -31 17 -68 78 -117 l56 -44 -41 -12 c-40 -12 -69 -30 -69
-44 0 -4 17 1 37 11 21 10 47 19 60 19 40 0 35 19 -21 74 -77 75 -86 124 -27
159 37 22 59 21 112 -3 67 -30 91 -26 142 24 59 57 79 97 85 172 5 70 -10 126
-52 192 -24 38 -56 56 -56 32z"/>
</g>
</svg>
